<svg xmlns="http://www.w3.org/2000/svg" viewBox="0 0 680 232" role="img" aria-label="Grained logo">
  <rect width="680" height="232" fill="#F8F5EC"/>
  <g transform="translate(16,6) scale(0.92)">
    <g fill="none" stroke="#C29A45">
      <ellipse cx="110" cy="128" rx="19" ry="18.1" stroke-width="4.0" transform="rotate(-3 110 128)"/>
      <ellipse cx="108.5" cy="129.5" rx="33" ry="31.6" stroke-width="2.6" transform="rotate(2 108.5 129.5)"/>
      <ellipse cx="111" cy="127" rx="47" ry="45.8" stroke-width="4.4" transform="rotate(-2 111 127)"/>
      <ellipse cx="109" cy="129" rx="61" ry="59.0" stroke-width="2.4" transform="rotate(3 109 129)"/>
      <ellipse cx="110.5" cy="127.5" rx="75" ry="72.8" stroke-width="3.8" transform="rotate(-1.5 110.5 127.5)"/>
      <ellipse cx="109.5" cy="128.5" rx="88" ry="85.6" stroke-width="2.8" transform="rotate(1 109.5 128.5)"/>
    </g>
    <path d="M 110 130 C 107.5 102, 112.5 72, 110 38" fill="none" stroke="#F8F5EC" stroke-width="15" stroke-linecap="round"/>
    <circle cx="110" cy="128" r="6" fill="#C29A45"/>
    <path d="M 110 123 C 107.5 100, 112.5 72, 110 40" fill="none" stroke="#2E6B3E" stroke-width="5.2" stroke-linecap="round"/>
    <path d="M 110 44 Q 90 40 83 17 Q 105 21 110 44 Z" fill="#2E6B3E"/>
    <path d="M 110 36 Q 126 31 133 8 Q 113 13 110 36 Z" fill="#97C25B"/>
    <g transform="translate(20,190)">
      <path d="M 90 8 C 72 -1, 48 -2, 20 4 L 20 28 C 48 22, 72 23, 90 32 C 108 23, 132 22, 160 28 L 160 4 C 132 -2, 108 -1, 90 8 Z" fill="#1E4B2C"/>
      <g stroke="#F8F5EC" stroke-linecap="round" fill="none" opacity="0.9">
        <path d="M 54 4 L 54 22" stroke-width="2.8"/>
        <path d="M 46.5 10 L 61.5 10" stroke-width="2.8"/>
        <path d="M 98 11 C 112 5, 130 5, 148 10" stroke-width="1.8"/>
        <path d="M 98 19 C 112 13, 130 13, 148 18" stroke-width="1.8"/>
      </g>
      <path d="M 90 9 L 90 31" stroke="#F8F5EC" stroke-width="2.4" stroke-linecap="round"/>
      <g fill="none" stroke="#1E4B2C" stroke-linecap="round">
        <path d="M 26 34 C 50 28.5, 72 29.5, 90 38 C 108 29.5, 130 28.5, 154 34" stroke-width="3.2"/>
        <path d="M 33 40 C 54 35, 72 36, 90 44 C 108 36, 126 35, 147 40" stroke-width="3.2"/>
      </g>
    </g>
  </g>
  <g transform="translate(228.0,122)"><path fill="#1E4B2C" d="M16.21 15.47Q12.99 15.47 10.34 14.7Q7.7 13.92 5.8 12.55Q3.9 11.18 2.87 9.36Q1.84 7.54 1.84 5.41Q1.84 2.48 3.54 1Q5.25 -0.48 7.12 -1.03Q5.35 -1.8 4.54 -3.21Q3.74 -4.61 3.74 -6.57Q3.74 -8.6 5.16 -10.55Q6.57 -12.5 8.41 -13.02Q6.16 -14.53 5.14 -17.02Q4.12 -19.5 4.12 -21.91Q4.12 -24.91 5.53 -27.36Q6.93 -29.81 9.56 -31.24Q12.18 -32.68 15.82 -32.68Q18.5 -32.68 20.59 -31.87Q22.69 -31.07 24.17 -29.65Q25.01 -31.1 26.38 -32.02Q27.75 -32.94 29.42 -32.94Q31.55 -32.94 32.68 -31.5Q33.81 -30.07 33.81 -27.97Q33.81 -26.43 33.03 -25.56Q32.26 -24.69 31.36 -24.69L27.97 -30Q27.26 -29.84 26.76 -29.44Q26.26 -29.04 25.49 -28.1Q27.3 -25.46 27.3 -21.91Q27.3 -18.98 25.89 -16.5Q24.49 -14.02 21.88 -12.54Q19.27 -11.05 15.63 -11.05Q13.95 -11.05 12.65 -11.2Q11.34 -11.34 10.51 -11.76Q9.31 -11.34 8.8 -10.51Q8.28 -9.67 8.28 -8.73Q8.28 -7.03 9.54 -6.09Q10.8 -5.16 12.73 -5.16H20.01Q23.43 -5.16 25.8 -4.4Q28.17 -3.64 29.41 -1.61Q30.65 0.42 30.62 4.22Q30.62 6.96 29 9.54Q27.39 12.12 24.2 13.79Q21.01 15.47 16.21 15.47ZM16.85 12.34Q18.14 12.34 19.77 12.04Q21.4 11.73 22.91 10.94Q24.43 10.15 25.41 8.77Q26.39 7.38 26.39 5.22Q26.39 3.48 25.48 2.47Q24.56 1.45 23.04 1.03Q21.53 0.61 19.72 0.61H13.99Q12.67 0.61 11.81 0.53Q10.96 0.45 10.38 0.31Q9.8 0.16 9.31 0.0Q8.77 0.68 8.23 1.82Q7.7 2.96 7.7 4.8Q7.7 7.44 9.02 9.12Q10.34 10.8 12.44 11.57Q14.53 12.34 16.85 12.34ZM15.76 -14.15Q17.95 -14.15 19.14 -15.21Q20.33 -16.27 20.79 -18.06Q21.24 -19.85 21.24 -21.98Q21.24 -25.23 20.08 -27.46Q18.92 -29.68 15.63 -29.68Q13.44 -29.68 12.23 -28.67Q11.02 -27.65 10.57 -25.91Q10.12 -24.17 10.12 -21.98Q10.12 -19.85 10.6 -18.06Q11.09 -16.27 12.31 -15.21Q13.54 -14.15 15.76 -14.15Z M40.95 0.0Q40.4 0.0 40.13 -0.48Q39.85 -0.97 39.85 -1.32Q39.85 -2.38 40.92 -2.51Q42.24 -2.64 43.44 -3.08Q44.65 -3.51 44.65 -4.58V-25.07Q44.65 -27.07 43.82 -27.81Q42.98 -28.55 41.85 -28.71Q40.72 -28.88 39.85 -29.1Q39.53 -29.26 39.3 -29.52Q39.08 -29.78 39.08 -30.39Q39.08 -30.78 39.29 -31.26Q39.5 -31.74 39.85 -31.78Q43.07 -31.97 45.52 -32.13Q47.97 -32.29 49.36 -32.32Q49.62 -32.32 49.94 -32.07Q50.26 -31.81 50.33 -31.03V-26.36Q51.32 -27.94 52.5 -29.37Q53.68 -30.81 55.16 -31.74Q56.64 -32.68 58.58 -32.68Q60.64 -32.68 61.67 -32Q62.7 -31.32 63.05 -30.29Q63.41 -29.26 63.41 -28.13Q63.41 -26.91 62.65 -26.12Q61.89 -25.33 60.91 -24.94Q59.93 -24.56 59.28 -24.56L56.22 -28.42Q55.26 -28.42 54.18 -27.68Q53.1 -26.94 52.16 -25.72Q51.23 -24.49 50.65 -23.07V-5.64Q50.65 -4.25 51.57 -3.63Q52.48 -3 53.79 -2.8Q55.09 -2.61 56.19 -2.51Q56.87 -2.45 57.11 -2.26Q57.35 -2.06 57.35 -1.32Q57.35 -0.97 57.08 -0.48Q56.8 0.0 56.25 0.0Z M70.78 -7.83Q70.78 -11.02 72.47 -13.1Q74.16 -15.18 76.93 -16.42Q79.7 -17.66 83.02 -18.32Q86.34 -18.98 89.56 -19.3V-24.27Q89.56 -25.46 88.97 -26.73Q88.37 -28 86.94 -28.89Q85.5 -29.78 82.93 -29.78Q81.54 -29.78 80.86 -29.6Q80.19 -29.42 79.77 -29.23L75.9 -21.43Q74.1 -21.43 72.63 -22.25Q71.16 -23.07 71.16 -25.17Q71.16 -26.62 72.08 -27.96Q73.0 -29.29 74.72 -30.36Q76.45 -31.42 78.88 -32.05Q81.31 -32.68 84.34 -32.68Q87.99 -32.68 90.23 -31.78Q92.46 -30.87 93.64 -29.36Q94.82 -27.84 95.24 -25.99Q95.66 -24.14 95.66 -22.2V-6.48Q95.66 -5.22 96.01 -4.12Q96.36 -3.03 96.88 -3.03Q97.33 -3.03 97.67 -3.08Q98.01 -3.13 98.59 -3.29Q99.14 -3.45 99.51 -2.92Q99.88 -2.38 99.88 -1.9Q99.88 -1.55 99.68 -1.39Q98.85 -0.77 97.17 -0.08Q95.49 0.61 93.5 0.61Q91.82 0.61 90.98 -0.1Q90.14 -0.81 90.14 -3.19V-3.83Q88.05 -1.64 85.62 -0.48Q83.18 0.68 79.8 0.68Q77.87 0.68 75.77 -0.16Q73.68 -1 72.23 -2.87Q70.78 -4.74 70.78 -7.83ZM77.51 -7.99Q77.51 -5.96 78.75 -4.43Q79.99 -2.9 82.12 -2.9Q84.79 -2.9 86.68 -3.8Q88.57 -4.71 89.53 -5.67V-17.02Q86.05 -16.5 83.34 -15.68Q80.64 -14.86 79.07 -13.1Q77.51 -11.34 77.51 -7.99Z M107.76 0.0Q107.21 0.0 106.94 -0.48Q106.66 -0.97 106.66 -1.32Q106.66 -2.38 107.73 -2.51Q108.92 -2.67 110.18 -3.09Q111.43 -3.51 111.43 -4.58L111.47 -25.07Q111.47 -27.07 110.63 -27.81Q109.79 -28.55 108.66 -28.71Q107.53 -28.88 106.66 -29.1Q106.34 -29.26 106.12 -29.52Q105.89 -29.78 105.89 -30.39Q105.89 -30.78 106.08 -31.28Q106.28 -31.78 106.66 -31.81Q109.89 -32 112.5 -32.07Q115.11 -32.13 116.49 -32.13Q116.75 -32.13 117.07 -31.87Q117.4 -31.61 117.46 -30.84V-5.64Q117.46 -4.25 118.12 -3.63Q118.78 -3 119.7 -2.8Q120.62 -2.61 121.39 -2.51Q122.07 -2.45 122.31 -2.26Q122.55 -2.06 122.55 -1.32Q122.55 -0.97 122.28 -0.48Q122 0.0 121.46 0.0ZM114.37 -37.8Q112.59 -37.8 111.53 -39.11Q110.47 -40.41 110.47 -42.28Q110.47 -44.18 111.53 -45.47Q112.59 -46.76 114.37 -46.76Q116.14 -46.76 117.2 -45.47Q118.27 -44.18 118.27 -42.28Q118.27 -40.41 117.2 -39.11Q116.14 -37.8 114.37 -37.8Z M130.56 0.0Q130.02 0.0 129.74 -0.48Q129.47 -0.97 129.47 -1.32Q129.47 -2.38 130.53 -2.51Q131.72 -2.67 133 -3.09Q134.27 -3.51 134.27 -4.58V-25.07Q134.27 -27.07 133.4 -27.81Q132.53 -28.55 131.4 -28.71Q130.27 -28.88 129.47 -29.1Q129.15 -29.26 128.92 -29.52Q128.69 -29.78 128.69 -30.39Q128.69 -30.78 128.89 -31.29Q129.08 -31.81 129.47 -31.84Q132.59 -32.03 135.12 -32.08Q137.65 -32.13 138.97 -32.13Q139.23 -32.13 139.55 -31.87Q139.88 -31.61 139.94 -30.84V-27.23Q140.52 -27.81 142.31 -29.12Q144.1 -30.42 146.71 -31.55Q149.32 -32.68 152.35 -32.68Q154.44 -32.68 156.2 -32.08Q157.96 -31.49 159.02 -29.76Q160.08 -28.04 160.08 -24.69V-5.64Q160.08 -4.09 160.86 -3.48Q161.63 -2.87 162.66 -2.76Q163.69 -2.64 164.5 -2.51Q165.05 -2.45 165.3 -2.24Q165.56 -2.03 165.56 -1.32Q165.56 -0.97 165.29 -0.48Q165.01 0.0 164.47 0.0H150.71Q150.16 0.0 149.88 -0.48Q149.61 -0.97 149.61 -1.32Q149.61 -1.84 149.8 -2.16Q150 -2.48 150.61 -2.51Q151.64 -2.58 152.83 -3.13Q154.02 -3.67 154.02 -4.58V-25.62Q154.02 -26.17 153.78 -26.94Q153.54 -27.71 152.65 -28.29Q151.77 -28.88 149.87 -28.88Q147.87 -28.88 146.0 -28.21Q144.13 -27.55 142.65 -26.62Q141.17 -25.68 140.26 -24.85V-5.64Q140.26 -3.58 141.47 -3.11Q142.68 -2.64 143.87 -2.51Q144.55 -2.45 144.79 -2.26Q145.03 -2.06 145.03 -1.32Q145.03 -0.97 144.76 -0.48Q144.49 0.0 143.94 0.0Z M186.88 0.93Q179.5 0.93 175.73 -3.56Q171.96 -8.06 171.96 -16.11Q171.96 -21.5 173.99 -25.19Q176.02 -28.88 179.34 -30.78Q182.66 -32.68 186.5 -32.68Q190.56 -32.68 193.12 -31.28Q195.68 -29.87 197.08 -27.38Q198.48 -24.88 199.06 -21.56Q199.29 -20.33 199.37 -18.98Q199.45 -17.63 199.45 -16.21H178.89Q178.92 -11.12 180.24 -8.09Q181.57 -5.06 183.58 -3.74Q185.59 -2.42 187.72 -2.42Q190.17 -2.42 192.2 -3.53Q194.23 -4.64 195.26 -6.7Q195.36 -6.9 195.46 -7.09Q195.55 -7.28 195.87 -7.22L197.49 -6.48Q197.84 -6.35 197.84 -6.09Q197.84 -5.96 197.78 -5.82Q197.71 -5.67 197.65 -5.58Q196.23 -2.74 193.62 -0.9Q191.01 0.93 186.88 0.93ZM178.96 -18.98 192.3 -19.17Q192.3 -24.78 190.62 -27.18Q188.95 -29.58 186.46 -29.58Q184.18 -29.58 182.56 -28.84Q180.95 -28.1 180.05 -25.83Q179.15 -23.56 178.96 -18.98Z M222.06 0.93Q217 0.93 213.92 -1.45Q210.85 -3.83 209.48 -7.67Q208.11 -11.5 208.11 -15.86Q208.11 -20.21 209.65 -24.04Q211.2 -27.88 214.44 -30.28Q217.68 -32.68 222.77 -32.68Q225.41 -32.68 227.73 -32.11Q230.05 -31.55 231.54 -30.1L231.21 -35.58V-43.15Q231.21 -44.67 230.52 -45.42Q229.83 -46.18 228.81 -46.49Q227.8 -46.79 226.78 -46.91Q225.77 -47.02 225.12 -47.18Q224.8 -47.34 224.58 -47.6Q224.35 -47.86 224.35 -48.47Q224.35 -48.86 224.54 -49.37Q224.74 -49.89 225.12 -49.92Q227.28 -50.05 229.49 -50.11Q231.7 -50.18 233.52 -50.19Q235.34 -50.21 236.24 -50.21Q236.5 -50.21 236.82 -49.95Q237.14 -49.69 237.21 -48.92V-5.64Q237.21 -3.58 238.42 -3.11Q239.62 -2.64 240.82 -2.51Q241.49 -2.45 241.74 -2.26Q241.98 -2.06 241.98 -1.32Q241.98 -0.97 241.7 -0.48Q241.43 0.0 240.88 0.0H233.66Q231.86 0.0 231.52 -0.81Q231.18 -1.61 231.21 -3.13Q229.54 -1.29 226.94 -0.18Q224.35 0.93 222.06 0.93ZM224.09 -2.13Q225.96 -2.13 228.06 -3.19Q230.15 -4.25 231.21 -5.67V-26.23Q230.31 -27.94 228.47 -28.78Q226.64 -29.62 223.96 -29.62Q220.39 -29.62 218.44 -27.81Q216.49 -26.01 215.75 -22.9Q215 -19.79 215 -15.86Q215 -12.02 215.78 -8.89Q216.55 -5.77 218.52 -3.95Q220.48 -2.13 224.09 -2.13Z"/></g>
  <g transform="translate(265.1,137.5)"><path fill="#8A6D1D" d="M3.37 0.11 1.12 -7.65Q1.02 -7.92 0.86 -8.01Q0.7 -8.1 0.52 -8.11Q0.35 -8.11 0.2 -8.12Q0.07 -8.14 0.02 -8.18Q-0.02 -8.22 -0.02 -8.35Q-0.02 -8.42 0.03 -8.54Q0.09 -8.66 0.18 -8.66H3.33Q3.43 -8.66 3.48 -8.54Q3.53 -8.42 3.53 -8.35Q3.53 -8.15 3.33 -8.12Q2.95 -8.1 2.66 -8.09Q2.36 -8.08 2.36 -7.92Q2.36 -7.9 2.37 -7.86L4.05 -1.75L6.11 -8.54H6.77L8.94 -1.72L10.58 -7.86Q10.58 -7.87 10.58 -7.9Q10.58 -8.03 10.42 -8.06Q10.26 -8.1 10.02 -8.11Q9.77 -8.11 9.51 -8.12Q9.31 -8.15 9.31 -8.35Q9.31 -8.42 9.36 -8.54Q9.41 -8.66 9.52 -8.66H12.23Q12.34 -8.66 12.39 -8.54Q12.44 -8.42 12.44 -8.35Q12.44 -8.22 12.39 -8.18Q12.35 -8.14 12.22 -8.12Q12.07 -8.11 11.89 -8.11Q11.7 -8.11 11.54 -8.02Q11.38 -7.93 11.3 -7.65L9.02 0.11H8.27L6.11 -6.38L4.12 0.11Z M14.18 0.0Q14.08 0.0 14.03 -0.12Q13.97 -0.24 13.97 -0.31Q13.97 -0.52 14.18 -0.54Q14.47 -0.56 14.73 -0.64Q15 -0.73 15 -0.93L15.01 -7.53Q15.01 -7.79 14.87 -7.91Q14.72 -8.03 14.53 -8.07Q14.33 -8.11 14.14 -8.12Q14.01 -8.14 13.96 -8.18Q13.92 -8.22 13.92 -8.35Q13.92 -8.42 13.97 -8.54Q14.02 -8.66 14.13 -8.66H17.13Q17.23 -8.66 17.29 -8.54Q17.34 -8.42 17.34 -8.35Q17.34 -8.14 17.14 -8.12Q16.84 -8.1 16.55 -8.02Q16.25 -7.93 16.25 -7.73L16.24 -1.13Q16.24 -0.87 16.4 -0.75Q16.56 -0.63 16.77 -0.6Q16.99 -0.56 17.17 -0.54Q17.3 -0.52 17.35 -0.49Q17.39 -0.45 17.39 -0.31Q17.39 -0.24 17.34 -0.12Q17.29 0.0 17.18 0.0ZM19.73 0.0Q19.63 0.0 19.57 -0.12Q19.52 -0.24 19.52 -0.31Q19.52 -0.52 19.72 -0.54Q20.02 -0.56 20.31 -0.64Q20.61 -0.73 20.61 -0.93L20.61 -7.53Q20.61 -7.79 20.46 -7.91Q20.3 -8.03 20.09 -8.07Q19.88 -8.11 19.69 -8.12Q19.56 -8.14 19.51 -8.18Q19.47 -8.22 19.47 -8.35Q19.47 -8.42 19.52 -8.54Q19.57 -8.66 19.67 -8.66H22.74Q22.84 -8.66 22.89 -8.54Q22.95 -8.42 22.95 -8.35Q22.95 -8.14 22.74 -8.12Q22.45 -8.1 22.16 -8.02Q21.86 -7.93 21.86 -7.73L21.85 -1.13Q21.85 -0.87 22.01 -0.75Q22.16 -0.63 22.38 -0.6Q22.6 -0.56 22.78 -0.54Q22.91 -0.52 22.96 -0.49Q23 -0.45 23 -0.31Q23 -0.24 22.95 -0.12Q22.9 0.0 22.79 0.0ZM15.98 -4.2V-4.86H20.88V-4.2Z M25.3 -0.31Q25.3 -0.51 25.5 -0.54Q25.79 -0.56 26.09 -0.64Q26.39 -0.73 26.39 -0.93V-7.53Q26.39 -7.79 26.24 -7.91Q26.08 -8.03 25.87 -8.07Q25.65 -8.11 25.46 -8.12Q25.34 -8.14 25.29 -8.18Q25.24 -8.22 25.24 -8.35Q25.24 -8.42 25.3 -8.54Q25.35 -8.66 25.45 -8.66L31.43 -8.67L31.65 -6.68Q31.66 -6.58 31.57 -6.53Q31.49 -6.48 31.42 -6.48Q31.32 -6.48 31.21 -6.51Q31.1 -6.54 31.03 -6.68Q30.79 -7.14 30.63 -7.44Q30.47 -7.75 30.29 -7.91Q30.1 -8.06 29.77 -8.06L27.7 -8.06V-4.75L29.13 -4.75Q29.28 -4.78 29.42 -4.99Q29.55 -5.19 29.64 -5.44Q29.73 -5.68 29.74 -5.8Q29.75 -5.92 29.84 -5.96Q29.93 -5.99 30.02 -5.99Q30.09 -5.99 30.18 -5.94Q30.27 -5.89 30.27 -5.79V-3.08Q30.27 -2.98 30.18 -2.93Q30.09 -2.87 30.02 -2.87Q29.93 -2.87 29.83 -2.92Q29.74 -2.96 29.72 -3.08Q29.72 -3.21 29.63 -3.47Q29.54 -3.73 29.4 -3.95Q29.26 -4.17 29.09 -4.17L27.7 -4.16V-1.2Q27.7 -0.87 27.87 -0.75Q28.04 -0.63 28.24 -0.62L29.98 -0.62Q30.53 -0.62 30.94 -0.99Q31.35 -1.36 31.57 -2.28Q31.6 -2.4 31.74 -2.44Q31.88 -2.48 31.98 -2.48Q32.1 -2.48 32.18 -2.43Q32.27 -2.38 32.28 -2.28L31.98 -0.01L25.51 0.0Q25.4 0.0 25.35 -0.12Q25.3 -0.24 25.3 -0.31Z M34.76 0.0Q34.65 0.0 34.6 -0.12Q34.55 -0.24 34.55 -0.31Q34.55 -0.51 34.75 -0.54Q35.04 -0.56 35.34 -0.64Q35.64 -0.73 35.64 -0.93L35.64 -7.53Q35.64 -7.79 35.5 -7.91Q35.36 -8.03 35.16 -8.07Q34.96 -8.11 34.77 -8.12Q34.65 -8.14 34.6 -8.18Q34.55 -8.22 34.55 -8.35Q34.55 -8.42 34.61 -8.54Q34.66 -8.66 34.76 -8.66Q35.13 -8.66 35.39 -8.66Q35.65 -8.67 35.9 -8.67Q36.41 -8.67 36.71 -8.68Q37.01 -8.69 37.3 -8.71Q37.58 -8.72 38.05 -8.72Q38.91 -8.71 39.61 -8.49Q40.32 -8.26 40.73 -7.76Q41.14 -7.26 41.14 -6.41Q41.14 -5.79 40.92 -5.32Q40.71 -4.85 40.27 -4.52Q39.83 -4.19 39.18 -4.02Q39.78 -3.96 40.12 -3.68Q40.46 -3.4 40.66 -2.99Q40.87 -2.59 41.04 -2.13Q41.21 -1.68 41.47 -1.26Q41.68 -0.86 41.92 -0.71Q42.17 -0.57 42.39 -0.54Q42.61 -0.52 42.61 -0.28Q42.61 -0.21 42.56 -0.11Q42.51 0.0 42.4 0.0H40.77Q40.51 0.0 40.31 -0.27Q40.12 -0.55 39.96 -0.99Q39.8 -1.42 39.64 -1.91Q39.47 -2.39 39.25 -2.83Q39.03 -3.27 38.72 -3.54Q38.41 -3.81 37.96 -3.81H36.87V-1.13Q36.87 -0.87 37.05 -0.75Q37.22 -0.63 37.46 -0.59Q37.7 -0.56 37.92 -0.54Q38.05 -0.52 38.1 -0.49Q38.14 -0.45 38.14 -0.31Q38.14 -0.24 38.09 -0.12Q38.04 0.0 37.94 0.0ZM36.88 -4.34H37.91Q38.41 -4.34 38.85 -4.5Q39.28 -4.66 39.55 -5.07Q39.82 -5.47 39.82 -6.22Q39.82 -6.96 39.55 -7.38Q39.28 -7.79 38.82 -7.96Q38.35 -8.13 37.77 -8.13H36.89Z M44.51 -0.31Q44.51 -0.51 44.71 -0.54Q45.01 -0.56 45.31 -0.64Q45.61 -0.73 45.61 -0.93V-7.53Q45.61 -7.79 45.45 -7.91Q45.29 -8.03 45.08 -8.07Q44.87 -8.11 44.68 -8.12Q44.55 -8.14 44.5 -8.18Q44.46 -8.22 44.46 -8.35Q44.46 -8.42 44.51 -8.54Q44.56 -8.66 44.67 -8.66L50.65 -8.67L50.86 -6.68Q50.87 -6.58 50.79 -6.53Q50.7 -6.48 50.63 -6.48Q50.54 -6.48 50.43 -6.51Q50.32 -6.54 50.24 -6.68Q50 -7.14 49.84 -7.44Q49.69 -7.75 49.5 -7.91Q49.32 -8.06 48.99 -8.06L46.91 -8.06V-4.75L48.34 -4.75Q48.5 -4.78 48.63 -4.99Q48.77 -5.19 48.86 -5.44Q48.94 -5.68 48.96 -5.8Q48.97 -5.92 49.05 -5.96Q49.14 -5.99 49.24 -5.99Q49.3 -5.99 49.4 -5.94Q49.49 -5.89 49.49 -5.79V-3.08Q49.49 -2.98 49.4 -2.93Q49.3 -2.87 49.24 -2.87Q49.14 -2.87 49.04 -2.92Q48.95 -2.96 48.94 -3.08Q48.93 -3.21 48.84 -3.47Q48.75 -3.73 48.61 -3.95Q48.47 -4.17 48.3 -4.17L46.91 -4.16V-1.2Q46.91 -0.87 47.08 -0.75Q47.25 -0.63 47.45 -0.62L49.19 -0.62Q49.74 -0.62 50.15 -0.99Q50.56 -1.36 50.78 -2.28Q50.81 -2.4 50.96 -2.44Q51.1 -2.48 51.2 -2.48Q51.31 -2.48 51.4 -2.43Q51.48 -2.38 51.5 -2.28L51.19 -0.01L44.72 0.0Q44.62 0.0 44.56 -0.12Q44.51 -0.24 44.51 -0.31Z M58.18 0.0Q58.07 0.0 58.02 -0.12Q57.97 -0.24 57.97 -0.31Q57.97 -0.51 58.17 -0.54Q58.42 -0.56 58.66 -0.6Q58.9 -0.63 59.07 -0.71Q59.24 -0.79 59.24 -0.93L59.25 -7.53Q59.25 -7.79 59.06 -7.91Q58.87 -8.03 58.62 -8.07Q58.36 -8.11 58.14 -8.12Q58.01 -8.14 57.96 -8.18Q57.92 -8.22 57.92 -8.35Q57.92 -8.42 57.97 -8.54Q58.02 -8.66 58.12 -8.66L64.37 -8.65L64.6 -6.53Q64.6 -6.43 64.51 -6.38Q64.42 -6.32 64.35 -6.32Q64.25 -6.32 64.18 -6.37Q64.1 -6.41 64.09 -6.52Q64.07 -6.62 63.97 -6.86Q63.86 -7.1 63.69 -7.38Q63.51 -7.66 63.29 -7.86Q63.07 -8.06 62.82 -8.06H60.5V-4.52H62.12Q62.27 -4.55 62.4 -4.76Q62.52 -4.97 62.6 -5.22Q62.68 -5.47 62.7 -5.59Q62.71 -5.71 62.81 -5.75Q62.91 -5.79 63.01 -5.79Q63.08 -5.79 63.17 -5.74Q63.26 -5.69 63.26 -5.58V-2.88Q63.26 -2.78 63.17 -2.73Q63.08 -2.67 63.01 -2.67Q62.91 -2.67 62.81 -2.72Q62.71 -2.76 62.7 -2.87Q62.68 -3.01 62.6 -3.28Q62.52 -3.55 62.38 -3.77Q62.25 -4 62.08 -4H60.5V-1.2Q60.5 -1.01 60.64 -0.88Q60.77 -0.74 60.99 -0.67Q61.2 -0.6 61.43 -0.57Q61.66 -0.54 61.86 -0.54Q61.96 -0.54 62.02 -0.49Q62.08 -0.45 62.08 -0.31Q62.08 -0.24 62.03 -0.12Q61.97 0.0 61.87 0.0Z M66 0.0Q65.9 0.0 65.85 -0.09Q65.79 -0.19 65.79 -0.31Q65.79 -0.45 65.84 -0.49Q65.88 -0.52 66.01 -0.54Q66.16 -0.56 66.34 -0.56Q66.53 -0.56 66.69 -0.65Q66.85 -0.74 66.95 -1.01L69.74 -8.8H70.72L73.43 -1.01Q73.53 -0.74 73.69 -0.65Q73.85 -0.56 74.03 -0.56Q74.21 -0.56 74.36 -0.54Q74.48 -0.52 74.53 -0.49Q74.58 -0.45 74.58 -0.31Q74.58 -0.24 74.52 -0.12Q74.47 0.0 74.37 0.0H71.31Q71.21 0.0 71.15 -0.12Q71.1 -0.24 71.1 -0.31Q71.1 -0.51 71.3 -0.54Q71.68 -0.56 71.91 -0.57Q72.14 -0.58 72.14 -0.72Q72.14 -0.76 72.12 -0.81L71.3 -3.28L71.66 -3.02H68.18L68.54 -3.28L67.71 -0.81Q67.7 -0.78 67.7 -0.73Q67.7 -0.58 67.96 -0.57Q68.22 -0.56 68.59 -0.54Q68.79 -0.51 68.79 -0.31Q68.79 -0.24 68.74 -0.12Q68.69 0.0 68.58 0.0ZM68.55 -3.28 68.36 -3.54H71.48L71.3 -3.28L69.98 -7.24Z M76.4 0.0Q76.3 0.0 76.25 -0.12Q76.2 -0.24 76.2 -0.31Q76.2 -0.52 76.4 -0.54Q76.69 -0.56 76.99 -0.64Q77.28 -0.73 77.28 -0.93L77.29 -7.53Q77.29 -7.79 77.13 -7.91Q76.98 -8.03 76.76 -8.07Q76.55 -8.11 76.36 -8.12Q76.23 -8.14 76.19 -8.18Q76.14 -8.22 76.14 -8.35Q76.14 -8.42 76.19 -8.54Q76.24 -8.66 76.35 -8.66H79.43Q79.53 -8.66 79.59 -8.54Q79.64 -8.42 79.64 -8.35Q79.64 -8.14 79.44 -8.12Q79.14 -8.1 78.85 -8.02Q78.55 -7.93 78.55 -7.73L78.55 -1.13Q78.55 -0.87 78.7 -0.75Q78.86 -0.63 79.07 -0.6Q79.29 -0.56 79.47 -0.54Q79.6 -0.52 79.65 -0.49Q79.69 -0.45 79.69 -0.31Q79.69 -0.24 79.64 -0.12Q79.59 0.0 79.49 0.0Z M83.48 0.0Q83.38 0.0 83.32 -0.12Q83.27 -0.24 83.27 -0.31Q83.27 -0.51 83.47 -0.54Q83.76 -0.56 84.05 -0.6Q84.34 -0.65 84.53 -0.77Q84.73 -0.89 84.73 -1.11L84.73 -8.06H83.18Q82.92 -8.06 82.75 -7.81Q82.58 -7.57 82.48 -7.22Q82.38 -6.88 82.33 -6.56Q82.28 -6.24 82.27 -6.1Q82.26 -5.98 82.2 -5.94Q82.14 -5.9 82.05 -5.9Q81.98 -5.9 81.85 -5.95Q81.73 -6 81.73 -6.1Q81.75 -6.4 81.77 -6.83Q81.79 -7.26 81.82 -7.68Q81.85 -8.1 81.88 -8.38Q81.91 -8.66 81.95 -8.66H88.77Q88.81 -8.66 88.84 -8.38Q88.87 -8.1 88.9 -7.68Q88.93 -7.26 88.95 -6.83Q88.97 -6.4 88.98 -6.1Q88.98 -6 88.86 -5.95Q88.74 -5.9 88.67 -5.9Q88.57 -5.9 88.51 -5.94Q88.45 -5.98 88.44 -6.1Q88.43 -6.24 88.38 -6.56Q88.34 -6.88 88.24 -7.22Q88.14 -7.57 87.97 -7.81Q87.8 -8.06 87.54 -8.06H86L85.99 -1.13Q85.99 -0.87 86.19 -0.75Q86.4 -0.63 86.69 -0.59Q86.98 -0.56 87.22 -0.54Q87.35 -0.52 87.4 -0.49Q87.44 -0.45 87.44 -0.31Q87.44 -0.24 87.39 -0.12Q87.34 0.0 87.23 0.0Z M91.21 0.0Q91.11 0.0 91.05 -0.12Q91 -0.24 91 -0.31Q91 -0.52 91.2 -0.54Q91.5 -0.56 91.76 -0.64Q92.03 -0.73 92.03 -0.93L92.03 -7.53Q92.03 -7.79 91.89 -7.91Q91.75 -8.03 91.56 -8.07Q91.36 -8.11 91.17 -8.12Q91.04 -8.14 90.99 -8.18Q90.95 -8.22 90.95 -8.35Q90.95 -8.42 91 -8.54Q91.05 -8.66 91.16 -8.66H94.16Q94.26 -8.66 94.31 -8.54Q94.37 -8.42 94.37 -8.35Q94.37 -8.14 94.16 -8.12Q93.87 -8.1 93.58 -8.02Q93.28 -7.93 93.28 -7.73L93.27 -1.13Q93.27 -0.87 93.43 -0.75Q93.58 -0.63 93.8 -0.6Q94.02 -0.56 94.2 -0.54Q94.33 -0.52 94.38 -0.49Q94.42 -0.45 94.42 -0.31Q94.42 -0.24 94.37 -0.12Q94.32 0.0 94.21 0.0ZM96.76 0.0Q96.65 0.0 96.6 -0.12Q96.55 -0.24 96.55 -0.31Q96.55 -0.52 96.75 -0.54Q97.05 -0.56 97.34 -0.64Q97.64 -0.73 97.64 -0.93L97.64 -7.53Q97.64 -7.79 97.49 -7.91Q97.33 -8.03 97.12 -8.07Q96.91 -8.11 96.72 -8.12Q96.59 -8.14 96.54 -8.18Q96.5 -8.22 96.5 -8.35Q96.5 -8.42 96.55 -8.54Q96.6 -8.66 96.7 -8.66H99.77Q99.87 -8.66 99.92 -8.54Q99.98 -8.42 99.98 -8.35Q99.98 -8.14 99.77 -8.12Q99.48 -8.1 99.18 -8.02Q98.89 -7.93 98.89 -7.73L98.88 -1.13Q98.88 -0.87 99.04 -0.75Q99.19 -0.63 99.41 -0.6Q99.63 -0.56 99.81 -0.54Q99.94 -0.52 99.98 -0.49Q100.03 -0.45 100.03 -0.31Q100.03 -0.24 99.98 -0.12Q99.93 0.0 99.82 0.0ZM93.01 -4.2V-4.86H97.91V-4.2Z M106.76 0.0Q106.66 0.0 106.61 -0.12Q106.55 -0.24 106.55 -0.31Q106.55 -0.52 106.76 -0.54Q107.05 -0.56 107.35 -0.64Q107.64 -0.73 107.64 -0.93L107.65 -7.53Q107.65 -7.79 107.49 -7.91Q107.34 -8.03 107.12 -8.07Q106.91 -8.11 106.72 -8.12Q106.59 -8.14 106.55 -8.18Q106.5 -8.22 106.5 -8.35Q106.5 -8.42 106.55 -8.54Q106.6 -8.66 106.71 -8.66H109.79Q109.89 -8.66 109.95 -8.54Q110 -8.42 110 -8.35Q110 -8.14 109.8 -8.12Q109.5 -8.1 109.21 -8.02Q108.91 -7.93 108.91 -7.73L108.9 -1.13Q108.9 -0.87 109.06 -0.75Q109.22 -0.63 109.43 -0.6Q109.65 -0.56 109.83 -0.54Q109.96 -0.52 110.01 -0.49Q110.05 -0.45 110.05 -0.31Q110.05 -0.24 110 -0.12Q109.95 0.0 109.84 0.0Z M115.67 0.18Q114.97 0.18 114.59 0.01Q114.22 -0.17 114.01 -0.27Q113.84 -0.37 113.73 -0.43Q113.62 -0.5 113.52 -0.5Q113.47 -0.5 113.42 -0.48Q113.38 -0.46 113.33 -0.4Q113.22 -0.26 113.1 -0.2Q112.98 -0.15 112.89 -0.15Q112.78 -0.15 112.71 -0.23Q112.64 -0.31 112.64 -0.44Q112.66 -0.56 112.66 -0.69Q112.66 -0.82 112.66 -0.95Q112.66 -1.55 112.59 -2.06Q112.52 -2.58 112.52 -2.86Q112.52 -3.02 112.62 -3.1Q112.71 -3.17 112.82 -3.17Q113.08 -3.17 113.14 -2.92Q113.18 -2.76 113.27 -2.48Q113.36 -2.2 113.6 -1.67Q113.82 -1.21 114.16 -0.92Q114.5 -0.63 114.87 -0.49Q115.24 -0.36 115.57 -0.36Q115.94 -0.36 116.29 -0.48Q116.63 -0.59 116.86 -0.91Q117.09 -1.23 117.09 -1.82Q117.09 -2.28 116.81 -2.63Q116.54 -2.99 116.09 -3.28Q115.65 -3.58 115.16 -3.82Q114.74 -4.03 114.33 -4.28Q113.92 -4.53 113.58 -4.84Q113.24 -5.16 113.03 -5.57Q112.83 -5.98 112.81 -6.52Q112.8 -7.15 113.03 -7.6Q113.26 -8.04 113.64 -8.31Q114.02 -8.59 114.47 -8.72Q114.92 -8.84 115.34 -8.84Q115.83 -8.84 116.16 -8.77Q116.48 -8.69 116.68 -8.61Q116.88 -8.53 116.96 -8.53Q117.1 -8.53 117.16 -8.59Q117.22 -8.64 117.31 -8.7Q117.37 -8.74 117.47 -8.74Q117.59 -8.74 117.7 -8.67Q117.81 -8.6 117.81 -8.51Q117.81 -8.14 117.85 -7.79Q117.89 -7.45 117.93 -7.15Q117.97 -6.85 117.97 -6.62Q117.97 -6.43 117.87 -6.35Q117.77 -6.27 117.65 -6.27Q117.56 -6.27 117.47 -6.32Q117.39 -6.36 117.38 -6.41Q117.31 -6.81 117.18 -7.12Q117.04 -7.43 116.86 -7.67Q116.67 -7.9 116.45 -8.05Q116.22 -8.21 115.97 -8.29Q115.71 -8.36 115.44 -8.36Q115.02 -8.36 114.69 -8.22Q114.36 -8.08 114.18 -7.76Q113.99 -7.44 113.99 -6.89Q113.99 -6.5 114.28 -6.17Q114.56 -5.83 115 -5.54Q115.44 -5.25 115.91 -4.97Q116.31 -4.74 116.74 -4.48Q117.16 -4.22 117.53 -3.9Q117.89 -3.58 118.12 -3.18Q118.35 -2.78 118.35 -2.26Q118.35 -1.47 117.99 -0.92Q117.63 -0.38 117.02 -0.1Q116.41 0.18 115.67 0.18Z M125.08 0.0Q124.97 0.0 124.92 -0.12Q124.87 -0.24 124.87 -0.31Q124.87 -0.52 125.07 -0.54Q125.36 -0.56 125.66 -0.64Q125.95 -0.73 125.95 -0.93L125.96 -7.53Q125.96 -7.79 125.81 -7.91Q125.65 -8.03 125.44 -8.07Q125.22 -8.11 125.03 -8.12Q124.9 -8.14 124.86 -8.18Q124.81 -8.22 124.81 -8.35Q124.81 -8.42 124.87 -8.54Q124.92 -8.66 125.02 -8.66H128.1Q128.21 -8.66 128.26 -8.54Q128.31 -8.42 128.31 -8.35Q128.31 -8.14 128.11 -8.12Q127.82 -8.1 127.52 -8.02Q127.22 -7.93 127.22 -7.73L127.22 -1.13Q127.22 -0.87 127.37 -0.75Q127.53 -0.63 127.75 -0.6Q127.96 -0.56 128.15 -0.54Q128.27 -0.52 128.32 -0.49Q128.37 -0.45 128.37 -0.31Q128.37 -0.24 128.31 -0.12Q128.26 0.0 128.16 0.0Z M130.75 0.0Q130.65 0.0 130.59 -0.12Q130.54 -0.24 130.54 -0.31Q130.54 -0.51 130.74 -0.54Q130.94 -0.56 131.16 -0.6Q131.38 -0.64 131.53 -0.75Q131.69 -0.85 131.69 -1.05V-7.53Q131.69 -7.79 131.52 -7.91Q131.35 -8.03 131.12 -8.07Q130.9 -8.11 130.71 -8.12Q130.58 -8.14 130.53 -8.18Q130.49 -8.22 130.49 -8.35Q130.49 -8.42 130.54 -8.54Q130.59 -8.66 130.69 -8.66H132.76L137.5 -1.91H137.57V-7.53Q137.57 -7.79 137.37 -7.91Q137.18 -8.03 136.92 -8.07Q136.66 -8.11 136.47 -8.12Q136.35 -8.14 136.3 -8.18Q136.25 -8.22 136.25 -8.35Q136.25 -8.42 136.31 -8.54Q136.36 -8.66 136.46 -8.66H139.24Q139.34 -8.66 139.39 -8.54Q139.45 -8.42 139.45 -8.35Q139.45 -8.15 139.25 -8.12Q139.06 -8.11 138.81 -8.07Q138.56 -8.03 138.37 -7.91Q138.18 -7.79 138.18 -7.53V-0.69Q138.18 -0.57 138.19 -0.5Q138.2 -0.42 138.21 -0.24Q138.23 0.01 138.1 0.1Q137.98 0.18 137.85 0.18Q137.63 0.18 137.52 0.05L132.4 -7.04H132.29V-1.13Q132.29 -0.87 132.48 -0.75Q132.66 -0.63 132.9 -0.6Q133.15 -0.56 133.33 -0.54Q133.46 -0.52 133.5 -0.49Q133.55 -0.45 133.55 -0.31Q133.55 -0.24 133.5 -0.12Q133.45 0.0 133.34 0.0Z M145.49 0.18Q144.99 0.18 144.43 0.04Q143.87 -0.1 143.34 -0.42Q142.8 -0.74 142.36 -1.27Q141.93 -1.79 141.67 -2.55Q141.4 -3.3 141.4 -4.31Q141.4 -5.32 141.67 -6.07Q141.93 -6.82 142.38 -7.35Q142.83 -7.89 143.39 -8.22Q143.95 -8.54 144.54 -8.69Q145.13 -8.84 145.67 -8.84Q146.85 -8.84 147.5 -8.65Q148.14 -8.45 148.46 -8.31L148.6 -6.41Q148.61 -6.31 148.53 -6.24Q148.45 -6.17 148.38 -6.17Q148.36 -6.17 148.35 -6.17Q148.33 -6.16 148.31 -6.16Q148.23 -6.16 148.17 -6.2Q148.1 -6.24 148.09 -6.34Q147.95 -6.85 147.64 -7.29Q147.34 -7.72 146.85 -7.99Q146.36 -8.25 145.66 -8.26Q145.38 -8.26 145.02 -8.17Q144.66 -8.08 144.3 -7.84Q143.93 -7.6 143.62 -7.16Q143.31 -6.72 143.11 -6.02Q142.92 -5.32 142.92 -4.31Q142.92 -3.19 143.22 -2.44Q143.51 -1.68 143.96 -1.24Q144.41 -0.79 144.9 -0.59Q145.38 -0.4 145.77 -0.4Q146.41 -0.4 146.77 -0.52Q147.13 -0.64 147.28 -0.83Q147.43 -1.02 147.43 -1.21V-2.78Q147.43 -3.05 147.26 -3.16Q147.08 -3.28 146.83 -3.32Q146.58 -3.36 146.34 -3.38Q146.21 -3.39 146.17 -3.43Q146.12 -3.47 146.12 -3.6Q146.12 -3.67 146.17 -3.79Q146.22 -3.91 146.33 -3.91H149.47Q149.58 -3.91 149.63 -3.79Q149.68 -3.67 149.68 -3.6Q149.68 -3.39 149.48 -3.38Q149.21 -3.35 148.94 -3.27Q148.67 -3.19 148.67 -2.98L148.71 -0.75Q148.62 -0.62 148.23 -0.39Q147.85 -0.17 147.16 0.01Q146.48 0.18 145.49 0.18Z M151.89 0.0Q151.78 0.0 151.73 -0.12Q151.68 -0.24 151.68 -0.31Q151.68 -0.51 151.88 -0.54Q152.17 -0.56 152.47 -0.64Q152.76 -0.73 152.76 -0.93L152.77 -7.53Q152.77 -7.79 152.63 -7.91Q152.49 -8.03 152.29 -8.07Q152.09 -8.11 151.9 -8.12Q151.78 -8.14 151.73 -8.18Q151.68 -8.22 151.68 -8.35Q151.68 -8.42 151.74 -8.54Q151.79 -8.66 151.89 -8.66Q152.26 -8.66 152.52 -8.66Q152.78 -8.67 153.03 -8.67Q153.54 -8.67 153.84 -8.68Q154.14 -8.69 154.42 -8.71Q154.71 -8.72 155.18 -8.72Q156.04 -8.71 156.74 -8.49Q157.45 -8.26 157.86 -7.76Q158.27 -7.26 158.27 -6.41Q158.27 -5.79 158.05 -5.32Q157.84 -4.85 157.4 -4.52Q156.96 -4.19 156.3 -4.02Q156.91 -3.96 157.25 -3.68Q157.59 -3.4 157.79 -2.99Q157.99 -2.59 158.17 -2.13Q158.34 -1.68 158.6 -1.26Q158.81 -0.86 159.05 -0.71Q159.29 -0.57 159.52 -0.54Q159.74 -0.52 159.74 -0.28Q159.74 -0.21 159.69 -0.11Q159.64 0.0 159.53 0.0H157.9Q157.63 0.0 157.44 -0.27Q157.25 -0.55 157.09 -0.99Q156.93 -1.42 156.77 -1.91Q156.6 -2.39 156.38 -2.83Q156.16 -3.27 155.85 -3.54Q155.54 -3.81 155.09 -3.81H154V-1.13Q154 -0.87 154.17 -0.75Q154.35 -0.63 154.59 -0.59Q154.83 -0.56 155.05 -0.54Q155.18 -0.52 155.23 -0.49Q155.27 -0.45 155.27 -0.31Q155.27 -0.24 155.22 -0.12Q155.17 0.0 155.07 0.0ZM154.01 -4.34H155.03Q155.54 -4.34 155.97 -4.5Q156.41 -4.66 156.68 -5.07Q156.95 -5.47 156.95 -6.22Q156.95 -6.96 156.68 -7.38Q156.41 -7.79 155.94 -7.96Q155.48 -8.13 154.89 -8.13H154.02Z M161.04 0.0Q160.95 0.0 160.89 -0.09Q160.84 -0.19 160.84 -0.31Q160.84 -0.45 160.88 -0.49Q160.93 -0.52 161.06 -0.54Q161.21 -0.56 161.39 -0.56Q161.57 -0.56 161.73 -0.65Q161.89 -0.74 161.99 -1.01L164.79 -8.8H165.76L168.48 -1.01Q168.58 -0.74 168.73 -0.65Q168.89 -0.56 169.07 -0.56Q169.25 -0.56 169.4 -0.54Q169.53 -0.52 169.57 -0.49Q169.62 -0.45 169.62 -0.31Q169.62 -0.24 169.57 -0.12Q169.52 0.0 169.41 0.0H166.35Q166.25 0.0 166.2 -0.12Q166.15 -0.24 166.15 -0.31Q166.15 -0.51 166.35 -0.54Q166.72 -0.56 166.95 -0.57Q167.18 -0.58 167.18 -0.72Q167.18 -0.76 167.17 -0.81L166.34 -3.28L166.71 -3.02H163.22L163.58 -3.28L162.75 -0.81Q162.74 -0.78 162.74 -0.73Q162.74 -0.58 163 -0.57Q163.26 -0.56 163.63 -0.54Q163.83 -0.51 163.83 -0.31Q163.83 -0.24 163.78 -0.12Q163.73 0.0 163.63 0.0ZM163.59 -3.28 163.4 -3.54H166.52L166.34 -3.28L165.02 -7.24Z M171.45 0.0Q171.34 0.0 171.29 -0.12Q171.24 -0.24 171.24 -0.31Q171.24 -0.52 171.44 -0.54Q171.73 -0.56 172.03 -0.64Q172.33 -0.73 172.33 -0.93L172.33 -7.53Q172.33 -7.79 172.18 -7.91Q172.02 -8.03 171.81 -8.07Q171.59 -8.11 171.4 -8.12Q171.28 -8.14 171.23 -8.18Q171.18 -8.22 171.18 -8.35Q171.18 -8.42 171.24 -8.54Q171.29 -8.66 171.39 -8.66H174.47Q174.58 -8.66 174.63 -8.54Q174.68 -8.42 174.68 -8.35Q174.68 -8.14 174.48 -8.12Q174.19 -8.1 173.89 -8.02Q173.6 -7.93 173.6 -7.73L173.59 -1.13Q173.59 -0.87 173.74 -0.75Q173.9 -0.63 174.12 -0.6Q174.33 -0.56 174.52 -0.54Q174.65 -0.52 174.69 -0.49Q174.74 -0.45 174.74 -0.31Q174.74 -0.24 174.68 -0.12Q174.63 0.0 174.53 0.0Z M177.12 0.0Q177.02 0.0 176.96 -0.12Q176.91 -0.24 176.91 -0.31Q176.91 -0.51 177.11 -0.54Q177.31 -0.56 177.53 -0.6Q177.75 -0.64 177.9 -0.75Q178.06 -0.85 178.06 -1.05V-7.53Q178.06 -7.79 177.89 -7.91Q177.72 -8.03 177.5 -8.07Q177.27 -8.11 177.08 -8.12Q176.95 -8.14 176.9 -8.18Q176.86 -8.22 176.86 -8.35Q176.86 -8.42 176.91 -8.54Q176.96 -8.66 177.07 -8.66H179.13L183.87 -1.91H183.94V-7.53Q183.94 -7.79 183.75 -7.91Q183.55 -8.03 183.29 -8.07Q183.03 -8.11 182.85 -8.12Q182.72 -8.14 182.67 -8.18Q182.63 -8.22 182.63 -8.35Q182.63 -8.42 182.68 -8.54Q182.73 -8.66 182.83 -8.66H185.61Q185.71 -8.66 185.77 -8.54Q185.82 -8.42 185.82 -8.35Q185.82 -8.15 185.62 -8.12Q185.43 -8.11 185.18 -8.07Q184.93 -8.03 184.74 -7.91Q184.55 -7.79 184.55 -7.53V-0.69Q184.55 -0.57 184.56 -0.5Q184.57 -0.42 184.58 -0.24Q184.6 0.01 184.47 0.1Q184.35 0.18 184.22 0.18Q184 0.18 183.89 0.05L178.77 -7.04H178.66V-1.13Q178.66 -0.87 178.85 -0.75Q179.03 -0.63 179.27 -0.6Q179.52 -0.56 179.7 -0.54Q179.83 -0.52 179.88 -0.49Q179.92 -0.45 179.92 -0.31Q179.92 -0.24 179.87 -0.12Q179.82 0.0 179.71 0.0Z M187.9 -0.31Q187.9 -0.51 188.1 -0.54Q188.4 -0.56 188.7 -0.64Q188.99 -0.73 188.99 -0.93V-7.53Q188.99 -7.79 188.84 -7.91Q188.68 -8.03 188.47 -8.07Q188.26 -8.11 188.07 -8.12Q187.94 -8.14 187.89 -8.18Q187.85 -8.22 187.85 -8.35Q187.85 -8.42 187.9 -8.54Q187.95 -8.66 188.05 -8.66L194.04 -8.67L194.25 -6.68Q194.26 -6.58 194.18 -6.53Q194.09 -6.48 194.02 -6.48Q193.93 -6.48 193.82 -6.51Q193.71 -6.54 193.63 -6.68Q193.39 -7.14 193.23 -7.44Q193.08 -7.75 192.89 -7.91Q192.71 -8.06 192.38 -8.06L190.3 -8.06V-4.75L191.73 -4.75Q191.89 -4.78 192.02 -4.99Q192.16 -5.19 192.24 -5.44Q192.33 -5.68 192.35 -5.8Q192.36 -5.92 192.44 -5.96Q192.53 -5.99 192.63 -5.99Q192.69 -5.99 192.78 -5.94Q192.88 -5.89 192.88 -5.79V-3.08Q192.88 -2.98 192.78 -2.93Q192.69 -2.87 192.63 -2.87Q192.53 -2.87 192.43 -2.92Q192.34 -2.96 192.33 -3.08Q192.32 -3.21 192.23 -3.47Q192.14 -3.73 192 -3.95Q191.86 -4.17 191.69 -4.17L190.3 -4.16V-1.2Q190.3 -0.87 190.47 -0.75Q190.64 -0.63 190.84 -0.62L192.58 -0.62Q193.13 -0.62 193.54 -0.99Q193.95 -1.36 194.17 -2.28Q194.2 -2.4 194.34 -2.44Q194.49 -2.48 194.59 -2.48Q194.7 -2.48 194.79 -2.43Q194.87 -2.38 194.88 -2.28L194.58 -0.01L188.11 0.0Q188.01 0.0 187.95 -0.12Q187.9 -0.24 187.9 -0.31Z M197.42 0.0Q197.32 0.0 197.26 -0.12Q197.21 -0.24 197.21 -0.31Q197.21 -0.51 197.41 -0.54Q197.71 -0.56 198 -0.64Q198.3 -0.73 198.3 -0.93V-7.53Q198.3 -7.79 198.14 -7.91Q197.99 -8.03 197.77 -8.07Q197.56 -8.11 197.37 -8.12Q197.24 -8.14 197.2 -8.18Q197.15 -8.22 197.15 -8.35Q197.15 -8.42 197.2 -8.54Q197.26 -8.66 197.36 -8.66H201Q202.24 -8.65 203.1 -8.31Q203.95 -7.96 204.47 -7.37Q204.99 -6.77 205.22 -6.03Q205.45 -5.29 205.45 -4.5Q205.45 -3.55 205.2 -2.81Q204.95 -2.08 204.52 -1.54Q204.1 -1.01 203.56 -0.67Q203.02 -0.33 202.44 -0.16Q201.86 0.0 201.31 0.0ZM199.59 -1.03Q199.59 -0.94 199.69 -0.85Q199.79 -0.75 200.06 -0.68Q200.33 -0.62 200.86 -0.62Q201.42 -0.62 201.97 -0.74Q202.52 -0.85 202.97 -1.24Q203.41 -1.62 203.68 -2.39Q203.95 -3.17 203.95 -4.48Q203.95 -5.62 203.66 -6.32Q203.38 -7.03 202.91 -7.41Q202.44 -7.79 201.89 -7.93Q201.33 -8.07 200.8 -8.07H199.6Z"/></g>
</svg>
